<svg width="312" height="167" viewBox="0 0 312 167" fill="none" xmlns="http://www.w3.org/2000/svg">
<line x1="95.9" y1="1.5" x2="66.5" y2="1.5" stroke="url(#paint0_linear_3380_14)" stroke-width="3" stroke-linecap="square"/>
<line x1="65.3487" y1="2.09246" x2="61.0925" y2="8.05126" stroke="url(#paint1_linear_3380_14)" stroke-width="3" stroke-linecap="square"/>
<line x1="60.9634" y1="9.20359" x2="106.603" y2="118.037" stroke="url(#paint2_linear_3380_14)" stroke-width="3" stroke-linecap="square"/>
<line x1="107.3" y1="118.5" x2="133.1" y2="118.5" stroke="url(#paint3_linear_3380_14)" stroke-width="3" stroke-linecap="square"/>
<line x1="133.833" y1="118.022" x2="150.622" y2="79.9669" stroke="url(#paint4_linear_3380_14)" stroke-width="3" stroke-linecap="square"/>
<line x1="122.17" y1="11.5876" x2="167.788" y2="118.03" stroke="url(#paint5_linear_3380_14)" stroke-width="3" stroke-linecap="square"/>
<line x1="128.9" y1="2.09961" x2="154.7" y2="2.09961" stroke="url(#paint6_linear_3380_14)" stroke-width="3" stroke-linecap="square"/>
<line x1="168.5" y1="118.5" x2="194.3" y2="118.5" stroke="url(#paint7_linear_3380_14)" stroke-width="3" stroke-linecap="square"/>
<line x1="194.895" y1="118.082" x2="233.482" y2="10.5055" stroke="url(#paint8_linear_3380_14)" stroke-width="3" stroke-linecap="square"/>
<line x1="233.3" y1="9.29961" x2="227.9" y2="2.09961" stroke="url(#paint9_linear_3380_14)" stroke-width="3" stroke-linecap="square"/>
<line x1="226.7" y1="1.5" x2="200.9" y2="1.5" stroke="url(#paint10_linear_3380_14)" stroke-width="3" stroke-linecap="square"/>
<line x1="200.221" y1="1.95613" x2="182.956" y2="44.1793" stroke="url(#paint11_linear_3380_14)" stroke-width="3" stroke-linecap="square"/>
<line x1="127.816" y1="2.08013" x2="122.28" y2="10.384" stroke="url(#paint12_linear_3380_14)" stroke-width="3" stroke-linecap="square"/>
<path d="M8.80682 161L0.852273 131.909H4.43182L10.5114 155.602H10.7955L16.9886 131.909H20.9659L27.1591 155.602H27.4432L33.5227 131.909H37.1023L29.1477 161H25.5114L19.0909 137.818H18.8636L12.4432 161H8.80682ZM48.1534 161.455C46.0511 161.455 44.2377 160.991 42.7131 160.062C41.1979 159.125 40.0284 157.818 39.2045 156.142C38.3902 154.456 37.983 152.496 37.983 150.261C37.983 148.027 38.3902 146.057 39.2045 144.352C40.0284 142.638 41.1742 141.303 42.642 140.347C44.1193 139.381 45.8428 138.898 47.8125 138.898C48.9489 138.898 50.071 139.087 51.179 139.466C52.2869 139.845 53.2955 140.46 54.2045 141.312C55.1136 142.155 55.8381 143.273 56.3778 144.665C56.9176 146.057 57.1875 147.771 57.1875 149.807V151.227H40.3693V148.33H53.7784C53.7784 147.098 53.5322 146 53.0398 145.034C52.5568 144.068 51.8655 143.306 50.9659 142.747C50.0758 142.188 49.0246 141.909 47.8125 141.909C46.4773 141.909 45.322 142.241 44.3466 142.903C43.3807 143.557 42.6373 144.409 42.1165 145.46C41.5956 146.511 41.3352 147.638 41.3352 148.841V150.773C41.3352 152.42 41.6193 153.817 42.1875 154.963C42.7652 156.099 43.5653 156.966 44.5881 157.562C45.6108 158.15 46.7992 158.443 48.1534 158.443C49.0341 158.443 49.8295 158.32 50.5398 158.074C51.2595 157.818 51.8797 157.439 52.4006 156.938C52.9214 156.426 53.3239 155.792 53.608 155.034L56.8466 155.943C56.5057 157.042 55.9328 158.008 55.1278 158.841C54.3229 159.665 53.3286 160.309 52.1449 160.773C50.9612 161.227 49.6307 161.455 48.1534 161.455ZM62.7415 161V131.909H66.0938V142.648H66.3778C66.6241 142.269 66.965 141.786 67.4006 141.199C67.8456 140.602 68.4801 140.072 69.304 139.608C70.1373 139.134 71.2642 138.898 72.6847 138.898C74.5218 138.898 76.1411 139.357 77.5426 140.276C78.9441 141.194 80.0379 142.496 80.8239 144.182C81.6098 145.867 82.0028 147.856 82.0028 150.148C82.0028 152.458 81.6098 154.461 80.8239 156.156C80.0379 157.842 78.9489 159.149 77.5568 160.077C76.1648 160.995 74.5597 161.455 72.7415 161.455C71.34 161.455 70.2178 161.223 69.375 160.759C68.5322 160.285 67.8835 159.75 67.429 159.153C66.9744 158.547 66.6241 158.045 66.3778 157.648H65.9801V161H62.7415ZM66.0369 150.091C66.0369 151.739 66.2784 153.192 66.7614 154.452C67.2443 155.702 67.9498 156.682 68.8778 157.392C69.8059 158.093 70.9422 158.443 72.2869 158.443C73.6884 158.443 74.858 158.074 75.7955 157.335C76.7424 156.587 77.4527 155.583 77.9261 154.324C78.4091 153.055 78.6506 151.644 78.6506 150.091C78.6506 148.557 78.4138 147.174 77.9403 145.943C77.4763 144.703 76.7708 143.723 75.8239 143.003C74.8864 142.274 73.7074 141.909 72.2869 141.909C70.9233 141.909 69.7775 142.255 68.8494 142.946C67.9214 143.628 67.2206 144.584 66.7472 145.815C66.2737 147.037 66.0369 148.462 66.0369 150.091ZM102.585 144.068L99.5739 144.92C99.3845 144.419 99.1051 143.931 98.7358 143.457C98.3759 142.974 97.8835 142.577 97.2585 142.264C96.6335 141.952 95.8333 141.795 94.858 141.795C93.5227 141.795 92.41 142.103 91.5199 142.719C90.6392 143.325 90.1989 144.097 90.1989 145.034C90.1989 145.867 90.5019 146.526 91.108 147.009C91.714 147.491 92.661 147.894 93.9489 148.216L97.1875 149.011C99.1383 149.485 100.592 150.209 101.548 151.185C102.505 152.151 102.983 153.396 102.983 154.92C102.983 156.17 102.623 157.288 101.903 158.273C101.193 159.258 100.199 160.034 98.9205 160.602C97.642 161.17 96.1553 161.455 94.4602 161.455C92.2348 161.455 90.393 160.972 88.9347 160.006C87.4763 159.04 86.553 157.629 86.1648 155.773L89.3466 154.977C89.6496 156.152 90.2225 157.032 91.0653 157.619C91.9176 158.206 93.0303 158.5 94.4034 158.5C95.9659 158.5 97.2064 158.169 98.125 157.506C99.053 156.833 99.517 156.028 99.517 155.091C99.517 154.333 99.2519 153.699 98.7216 153.188C98.1913 152.667 97.3769 152.278 96.2784 152.023L92.642 151.17C90.6439 150.697 89.1761 149.963 88.2386 148.969C87.3106 147.965 86.8466 146.71 86.8466 145.205C86.8466 143.973 87.1922 142.884 87.8835 141.938C88.5843 140.991 89.536 140.247 90.7386 139.707C91.9508 139.168 93.3239 138.898 94.858 138.898C97.017 138.898 98.7121 139.371 99.9432 140.318C101.184 141.265 102.064 142.515 102.585 144.068ZM108.029 161V139.182H111.381V161H108.029ZM109.734 135.545C109.08 135.545 108.517 135.323 108.043 134.878C107.579 134.433 107.347 133.898 107.347 133.273C107.347 132.648 107.579 132.113 108.043 131.668C108.517 131.223 109.08 131 109.734 131C110.387 131 110.946 131.223 111.41 131.668C111.883 132.113 112.12 132.648 112.12 133.273C112.12 133.898 111.883 134.433 111.41 134.878C110.946 135.323 110.387 135.545 109.734 135.545ZM127.01 139.182V142.023H115.703V139.182H127.01ZM118.999 133.955H122.351V154.75C122.351 155.697 122.488 156.407 122.763 156.881C123.047 157.345 123.407 157.657 123.842 157.818C124.287 157.97 124.756 158.045 125.249 158.045C125.618 158.045 125.921 158.027 126.158 157.989C126.394 157.941 126.584 157.903 126.726 157.875L127.408 160.886C127.18 160.972 126.863 161.057 126.456 161.142C126.049 161.237 125.533 161.284 124.908 161.284C123.961 161.284 123.033 161.08 122.124 160.673C121.224 160.266 120.476 159.646 119.879 158.812C119.292 157.979 118.999 156.928 118.999 155.659V133.955ZM140.966 161.455C138.864 161.455 137.05 160.991 135.526 160.062C134.01 159.125 132.841 157.818 132.017 156.142C131.203 154.456 130.795 152.496 130.795 150.261C130.795 148.027 131.203 146.057 132.017 144.352C132.841 142.638 133.987 141.303 135.455 140.347C136.932 139.381 138.655 138.898 140.625 138.898C141.761 138.898 142.884 139.087 143.991 139.466C145.099 139.845 146.108 140.46 147.017 141.312C147.926 142.155 148.651 143.273 149.19 144.665C149.73 146.057 150 147.771 150 149.807V151.227H133.182V148.33H146.591C146.591 147.098 146.345 146 145.852 145.034C145.369 144.068 144.678 143.306 143.778 142.747C142.888 142.188 141.837 141.909 140.625 141.909C139.29 141.909 138.134 142.241 137.159 142.903C136.193 143.557 135.45 144.409 134.929 145.46C134.408 146.511 134.148 147.638 134.148 148.841V150.773C134.148 152.42 134.432 153.817 135 154.963C135.578 156.099 136.378 156.966 137.401 157.562C138.423 158.15 139.612 158.443 140.966 158.443C141.847 158.443 142.642 158.32 143.352 158.074C144.072 157.818 144.692 157.439 145.213 156.938C145.734 156.426 146.136 155.792 146.42 155.034L149.659 155.943C149.318 157.042 148.745 158.008 147.94 158.841C147.135 159.665 146.141 160.309 144.957 160.773C143.774 161.227 142.443 161.455 140.966 161.455ZM166.804 161V131.909H176.634C178.906 131.909 180.772 132.297 182.23 133.074C183.688 133.841 184.768 134.897 185.469 136.241C186.17 137.586 186.52 139.116 186.52 140.83C186.52 142.544 186.17 144.063 185.469 145.389C184.768 146.715 183.693 147.757 182.244 148.514C180.795 149.262 178.944 149.636 176.69 149.636H168.736V146.455H176.577C178.13 146.455 179.38 146.227 180.327 145.773C181.283 145.318 181.974 144.674 182.401 143.841C182.836 142.998 183.054 141.994 183.054 140.83C183.054 139.665 182.836 138.647 182.401 137.776C181.965 136.904 181.269 136.232 180.312 135.759C179.356 135.276 178.092 135.034 176.52 135.034H170.327V161H166.804ZM180.497 147.932L187.656 161H183.565L176.52 147.932H180.497ZM200.849 161.455C198.746 161.455 196.933 160.991 195.408 160.062C193.893 159.125 192.724 157.818 191.9 156.142C191.085 154.456 190.678 152.496 190.678 150.261C190.678 148.027 191.085 146.057 191.9 144.352C192.724 142.638 193.87 141.303 195.337 140.347C196.815 139.381 198.538 138.898 200.508 138.898C201.644 138.898 202.766 139.087 203.874 139.466C204.982 139.845 205.991 140.46 206.9 141.312C207.809 142.155 208.533 143.273 209.073 144.665C209.613 146.057 209.883 147.771 209.883 149.807V151.227H193.065V148.33H206.474C206.474 147.098 206.228 146 205.735 145.034C205.252 144.068 204.561 143.306 203.661 142.747C202.771 142.188 201.72 141.909 200.508 141.909C199.173 141.909 198.017 142.241 197.042 142.903C196.076 143.557 195.333 144.409 194.812 145.46C194.291 146.511 194.031 147.638 194.031 148.841V150.773C194.031 152.42 194.315 153.817 194.883 154.963C195.46 156.099 196.261 156.966 197.283 157.562C198.306 158.15 199.495 158.443 200.849 158.443C201.729 158.443 202.525 158.32 203.235 158.074C203.955 157.818 204.575 157.439 205.096 156.938C205.617 156.426 206.019 155.792 206.303 155.034L209.542 155.943C209.201 157.042 208.628 158.008 207.823 158.841C207.018 159.665 206.024 160.309 204.84 160.773C203.656 161.227 202.326 161.455 200.849 161.455ZM232.159 139.182L224.091 161H220.682L212.614 139.182H216.25L222.273 156.568H222.5L228.523 139.182H232.159ZM236.584 161V139.182H239.936V161H236.584ZM238.288 135.545C237.635 135.545 237.071 135.323 236.598 134.878C236.134 134.433 235.902 133.898 235.902 133.273C235.902 132.648 236.134 132.113 236.598 131.668C237.071 131.223 237.635 131 238.288 131C238.942 131 239.5 131.223 239.964 131.668C240.438 132.113 240.675 132.648 240.675 133.273C240.675 133.898 240.438 134.433 239.964 134.878C239.5 135.323 238.942 135.545 238.288 135.545ZM255.224 161.455C253.121 161.455 251.308 160.991 249.783 160.062C248.268 159.125 247.099 157.818 246.275 156.142C245.46 154.456 245.053 152.496 245.053 150.261C245.053 148.027 245.46 146.057 246.275 144.352C247.099 142.638 248.245 141.303 249.712 140.347C251.19 139.381 252.913 138.898 254.883 138.898C256.019 138.898 257.141 139.087 258.249 139.466C259.357 139.845 260.366 140.46 261.275 141.312C262.184 142.155 262.908 143.273 263.448 144.665C263.988 146.057 264.258 147.771 264.258 149.807V151.227H247.44V148.33H260.849C260.849 147.098 260.603 146 260.11 145.034C259.627 144.068 258.936 143.306 258.036 142.747C257.146 142.188 256.095 141.909 254.883 141.909C253.548 141.909 252.392 142.241 251.417 142.903C250.451 143.557 249.708 144.409 249.187 145.46C248.666 146.511 248.406 147.638 248.406 148.841V150.773C248.406 152.42 248.69 153.817 249.258 154.963C249.835 156.099 250.636 156.966 251.658 157.562C252.681 158.15 253.87 158.443 255.224 158.443C256.104 158.443 256.9 158.32 257.61 158.074C258.33 157.818 258.95 157.439 259.471 156.938C259.992 156.426 260.394 155.792 260.678 155.034L263.917 155.943C263.576 157.042 263.003 158.008 262.198 158.841C261.393 159.665 260.399 160.309 259.215 160.773C258.031 161.227 256.701 161.455 255.224 161.455ZM274.3 161L267.653 139.182H271.175L275.891 155.886H276.119L280.778 139.182H284.357L288.96 155.83H289.187L293.903 139.182H297.425L290.778 161H287.482L282.71 144.239H282.369L277.596 161H274.3Z" fill="url(#paint13_linear_3380_14)"/>
<path d="M198.525 41.2541C198.404 40.9542 198.212 40.6883 197.965 40.4791C197.718 40.2698 197.424 40.1235 197.109 40.0527C196.793 39.982 196.465 39.9888 196.153 40.0726C195.84 40.1565 195.553 40.3148 195.315 40.5341L174.406 59.8329L163.502 57.5031L161.162 46.6087L180.461 25.7C180.682 25.4623 180.841 25.1745 180.925 24.8615C181.01 24.5486 181.017 24.2197 180.946 23.9034C180.875 23.5871 180.728 23.2927 180.519 23.0456C180.309 22.7986 180.042 22.6062 179.741 22.4852C173.357 19.9003 166.338 19.3153 159.614 20.8078C152.89 22.3003 146.778 25.7999 142.087 30.8431C137.397 35.8863 134.348 42.2354 133.346 49.0496C132.343 55.8638 133.434 62.8219 136.474 69.0024L105.205 96.0007L105.1 96.1007C102.475 98.7262 101 102.287 101 106C101 109.713 102.475 113.274 105.1 115.9C107.726 118.525 111.287 120 115 120C118.713 120 122.274 118.525 124.899 115.9L124.999 115.795L151.998 84.5264C157.182 87.0762 162.931 88.2627 168.701 87.9739C174.472 87.6851 180.073 85.9306 184.977 82.8759C189.881 79.8213 193.926 75.5672 196.729 70.5155C199.533 65.4637 201.003 59.7808 201 54.0033C201.008 49.6334 200.168 45.3035 198.525 41.2541ZM167.002 84.0015C161.931 84.0021 156.942 82.7171 152.503 80.2667C152.099 80.04 151.629 79.9604 151.173 80.0416C150.717 80.1227 150.304 80.3596 150.003 80.7117L122.005 113.125C120.102 114.848 117.61 115.774 115.044 115.711C112.478 115.648 110.035 114.6 108.22 112.785C106.405 110.97 105.357 108.527 105.294 105.961C105.231 103.395 106.157 100.903 107.88 99.0006L140.288 71.0023C140.641 70.7015 140.877 70.2879 140.959 69.832C141.04 69.3761 140.96 68.9062 140.733 68.5024C137.855 63.2965 136.589 57.3522 137.097 51.425C137.604 45.4979 139.863 39.8555 143.585 35.2152C147.308 30.5748 152.326 27.146 158.002 25.3644C163.678 23.5829 169.755 23.5292 175.461 25.21L157.527 44.6489C157.308 44.8829 157.148 45.1663 157.061 45.4752C156.974 45.7842 156.962 46.1095 157.027 46.4237L159.857 59.5979C159.938 59.9744 160.126 60.3195 160.398 60.5918C160.671 60.864 161.016 61.0519 161.392 61.1329L174.566 63.9627C174.881 64.0279 175.206 64.0165 175.515 63.9295C175.824 63.8424 176.107 63.6824 176.341 63.4627L195.775 45.5288C197.087 50.002 197.339 54.7193 196.512 59.307C195.685 63.8946 193.8 68.2266 191.008 71.9597C188.216 75.6928 184.594 78.7245 180.427 80.8146C176.26 82.9047 171.664 83.9958 167.002 84.0015Z" fill="#0C4483"/>
<defs>
<linearGradient id="paint0_linear_3380_14" x1="81.2" y1="0" x2="81.2" y2="-1" gradientUnits="userSpaceOnUse">
<stop stop-color="#0C4483"/>
<stop offset="1" stop-color="#030F1D"/>
</linearGradient>
<linearGradient id="paint1_linear_3380_14" x1="62" y1="4.2" x2="61.1863" y2="3.61876" gradientUnits="userSpaceOnUse">
<stop stop-color="#0C4483"/>
<stop offset="1" stop-color="#030F1D"/>
</linearGradient>
<linearGradient id="paint2_linear_3380_14" x1="82.4" y1="64.2004" x2="81.4778" y2="64.5871" gradientUnits="userSpaceOnUse">
<stop stop-color="#0C4483"/>
<stop offset="1" stop-color="#030F1D"/>
</linearGradient>
<linearGradient id="paint3_linear_3380_14" x1="120.2" y1="120" x2="120.2" y2="121" gradientUnits="userSpaceOnUse">
<stop stop-color="#0C4483"/>
<stop offset="1" stop-color="#030F1D"/>
</linearGradient>
<linearGradient id="paint4_linear_3380_14" x1="143.6" y1="99.6" x2="144.515" y2="100.004" gradientUnits="userSpaceOnUse">
<stop stop-color="#0C4483"/>
<stop offset="1" stop-color="#030F1D"/>
</linearGradient>
<linearGradient id="paint5_linear_3380_14" x1="143.6" y1="65.3998" x2="142.681" y2="65.7937" gradientUnits="userSpaceOnUse">
<stop stop-color="#0C4483"/>
<stop offset="1" stop-color="#030F1D"/>
</linearGradient>
<linearGradient id="paint6_linear_3380_14" x1="141.8" y1="3.59961" x2="141.8" y2="4.59961" gradientUnits="userSpaceOnUse">
<stop stop-color="#0C4483"/>
<stop offset="1" stop-color="#030F1D"/>
</linearGradient>
<linearGradient id="paint7_linear_3380_14" x1="181.4" y1="120" x2="181.4" y2="121" gradientUnits="userSpaceOnUse">
<stop stop-color="#0C4483"/>
<stop offset="1" stop-color="#030F1D"/>
</linearGradient>
<linearGradient id="paint8_linear_3380_14" x1="215.6" y1="64.8" x2="216.541" y2="65.1376" gradientUnits="userSpaceOnUse">
<stop stop-color="#0C4483"/>
<stop offset="1" stop-color="#030F1D"/>
</linearGradient>
<linearGradient id="paint9_linear_3380_14" x1="231.8" y1="4.79961" x2="232.6" y2="4.19961" gradientUnits="userSpaceOnUse">
<stop stop-color="#0C4483"/>
<stop offset="1" stop-color="#030F1D"/>
</linearGradient>
<linearGradient id="paint10_linear_3380_14" x1="213.8" y1="0" x2="213.8" y2="-1" gradientUnits="userSpaceOnUse">
<stop stop-color="#0C4483"/>
<stop offset="1" stop-color="#030F1D"/>
</linearGradient>
<linearGradient id="paint11_linear_3380_14" x1="190.2" y1="22.5" x2="189.274" y2="22.1215" gradientUnits="userSpaceOnUse">
<stop stop-color="#0C4483"/>
<stop offset="1" stop-color="#030F1D"/>
</linearGradient>
<linearGradient id="paint12_linear_3380_14" x1="123.8" y1="5.4" x2="122.968" y2="4.8453" gradientUnits="userSpaceOnUse">
<stop stop-color="#0C4483"/>
<stop offset="1" stop-color="#030F1D"/>
</linearGradient>
<linearGradient id="paint13_linear_3380_14" x1="156" y1="126" x2="156" y2="167" gradientUnits="userSpaceOnUse">
<stop stop-color="#0C4483"/>
<stop offset="1" stop-color="#030F1D"/>
</linearGradient>
</defs>
</svg>
