<svg width="326" height="179" viewBox="0 0 326 179" fill="none" xmlns="http://www.w3.org/2000/svg">
<g filter="url(#filter0_d_3390_96)">
<path d="M26.7841 67L10.6477 8.81818H19.8807L31.2159 53.875H31.7557L43.5455 8.81818H52.6932L64.483 53.9034H65.0227L76.3295 8.81818H85.5909L69.4261 67H60.5909L48.3466 23.4205H47.892L35.6477 67H26.7841ZM107.423 67.8807C103.124 67.8807 99.4214 66.9621 96.3153 65.125C93.2282 63.2689 90.8419 60.6648 89.1562 57.3125C87.4896 53.9413 86.6562 49.9924 86.6562 45.4659C86.6562 40.9962 87.4896 37.0568 89.1562 33.6477C90.8419 30.2386 93.1903 27.5777 96.2017 25.6648C99.232 23.7519 102.774 22.7955 106.827 22.7955C109.289 22.7955 111.675 23.2027 113.986 24.017C116.296 24.8314 118.37 26.1098 120.207 27.8523C122.045 29.5947 123.493 31.858 124.554 34.642C125.615 37.4072 126.145 40.7689 126.145 44.7273V47.7386H91.4574V41.375H117.821C117.821 39.1402 117.366 37.161 116.457 35.4375C115.548 33.6951 114.27 32.322 112.622 31.3182C110.993 30.3144 109.08 29.8125 106.884 29.8125C104.497 29.8125 102.414 30.3996 100.634 31.5739C98.8722 32.7292 97.5085 34.2443 96.5426 36.1193C95.5956 37.9754 95.1222 39.9924 95.1222 42.1705V47.142C95.1222 50.0587 95.6335 52.5398 96.6562 54.5852C97.6979 56.6307 99.1468 58.1932 101.003 59.2727C102.859 60.3333 105.027 60.8636 107.509 60.8636C109.118 60.8636 110.586 60.6364 111.912 60.1818C113.238 59.7083 114.384 59.0076 115.349 58.0795C116.315 57.1515 117.054 56.0057 117.565 54.642L125.605 56.0909C124.961 58.4583 123.806 60.5322 122.139 62.3125C120.491 64.0739 118.418 65.447 115.918 66.4318C113.437 67.3977 110.605 67.8807 107.423 67.8807ZM136.251 67V8.81818H144.746V30.4375H145.257C145.75 29.5284 146.46 28.4773 147.388 27.2841C148.316 26.0909 149.604 25.0492 151.251 24.1591C152.899 23.25 155.077 22.7955 157.786 22.7955C161.308 22.7955 164.452 23.6856 167.217 25.4659C169.982 27.2462 172.151 29.8125 173.723 33.1648C175.314 36.517 176.109 40.5511 176.109 45.267C176.109 49.983 175.323 54.0265 173.751 57.3977C172.179 60.75 170.02 63.3352 167.274 65.1534C164.528 66.9527 161.393 67.8523 157.871 67.8523C155.219 67.8523 153.051 67.4072 151.365 66.517C149.698 65.6269 148.392 64.5852 147.445 63.392C146.498 62.1989 145.768 61.1383 145.257 60.2102H144.547V67H136.251ZM144.575 45.1818C144.575 48.25 145.02 50.9394 145.911 53.25C146.801 55.5606 148.089 57.3693 149.774 58.6761C151.46 59.964 153.524 60.608 155.967 60.608C158.505 60.608 160.626 59.9356 162.331 58.5909C164.036 57.2273 165.323 55.3807 166.195 53.0511C167.085 50.7216 167.53 48.0985 167.53 45.1818C167.53 42.303 167.094 39.7178 166.223 37.4261C165.371 35.1345 164.083 33.3258 162.359 32C160.655 30.6742 158.524 30.0114 155.967 30.0114C153.505 30.0114 151.422 30.6458 149.717 31.9148C148.032 33.1837 146.753 34.9545 145.882 37.2273C145.011 39.5 144.575 42.1515 144.575 45.1818ZM218.347 34.017L210.648 35.3807C210.326 34.3958 209.814 33.4583 209.114 32.5682C208.432 31.678 207.504 30.9489 206.33 30.3807C205.155 29.8125 203.688 29.5284 201.926 29.5284C199.521 29.5284 197.513 30.0682 195.903 31.1477C194.294 32.2083 193.489 33.5814 193.489 35.267C193.489 36.7254 194.028 37.8996 195.108 38.7898C196.188 39.6799 197.93 40.4091 200.335 40.9773L207.267 42.5682C211.282 43.4962 214.275 44.9261 216.244 46.858C218.214 48.7898 219.199 51.2992 219.199 54.3864C219.199 57 218.441 59.3295 216.926 61.375C215.43 63.4015 213.337 64.9924 210.648 66.1477C207.977 67.303 204.881 67.8807 201.358 67.8807C196.472 67.8807 192.485 66.839 189.398 64.7557C186.311 62.6534 184.417 59.6705 183.716 55.8068L191.926 54.5568C192.438 56.697 193.489 58.3163 195.08 59.4148C196.67 60.4943 198.744 61.0341 201.301 61.0341C204.085 61.0341 206.311 60.4564 207.977 59.3011C209.644 58.1269 210.477 56.697 210.477 55.0114C210.477 53.6477 209.966 52.5019 208.943 51.5739C207.939 50.6458 206.396 49.9451 204.312 49.4716L196.926 47.8523C192.854 46.9242 189.843 45.447 187.892 43.4205C185.96 41.3939 184.994 38.8277 184.994 35.7216C184.994 33.1458 185.714 30.892 187.153 28.9602C188.593 27.0284 190.581 25.5227 193.119 24.4432C195.657 23.3447 198.564 22.7955 201.841 22.7955C206.557 22.7955 210.269 23.8182 212.977 25.8636C215.686 27.8902 217.475 30.608 218.347 34.017ZM228.538 67V23.3636H237.033V67H228.538ZM232.828 16.6307C231.351 16.6307 230.082 16.1383 229.021 15.1534C227.98 14.1496 227.459 12.9564 227.459 11.5739C227.459 10.1723 227.98 8.97917 229.021 7.99432C230.082 6.99053 231.351 6.48864 232.828 6.48864C234.305 6.48864 235.565 6.99053 236.607 7.99432C237.667 8.97917 238.197 10.1723 238.197 11.5739C238.197 12.9564 237.667 14.1496 236.607 15.1534C235.565 16.1383 234.305 16.6307 232.828 16.6307ZM268.83 23.3636V30.1818H244.994V23.3636H268.83ZM251.386 12.9091H259.881V54.1875C259.881 55.8352 260.127 57.0758 260.619 57.9091C261.112 58.7235 261.746 59.2822 262.523 59.5852C263.318 59.8693 264.18 60.0114 265.108 60.0114C265.79 60.0114 266.386 59.964 266.898 59.8693C267.409 59.7746 267.807 59.6989 268.091 59.642L269.625 66.6591C269.133 66.8485 268.432 67.0379 267.523 67.2273C266.614 67.4356 265.477 67.5492 264.114 67.5682C261.879 67.6061 259.795 67.2083 257.864 66.375C255.932 65.5417 254.369 64.2538 253.176 62.5114C251.983 60.7689 251.386 58.5814 251.386 55.9489V12.9091ZM296.564 67.8807C292.265 67.8807 288.562 66.9621 285.456 65.125C282.369 63.2689 279.982 60.6648 278.297 57.3125C276.63 53.9413 275.797 49.9924 275.797 45.4659C275.797 40.9962 276.63 37.0568 278.297 33.6477C279.982 30.2386 282.331 27.5777 285.342 25.6648C288.373 23.7519 291.914 22.7955 295.967 22.7955C298.429 22.7955 300.816 23.2027 303.126 24.017C305.437 24.8314 307.511 26.1098 309.348 27.8523C311.185 29.5947 312.634 31.858 313.695 34.642C314.755 37.4072 315.286 40.7689 315.286 44.7273V47.7386H280.598V41.375H306.962C306.962 39.1402 306.507 37.161 305.598 35.4375C304.689 33.6951 303.411 32.322 301.763 31.3182C300.134 30.3144 298.221 29.8125 296.024 29.8125C293.638 29.8125 291.554 30.3996 289.774 31.5739C288.013 32.7292 286.649 34.2443 285.683 36.1193C284.736 37.9754 284.263 39.9924 284.263 42.1705V47.142C284.263 50.0587 284.774 52.5398 285.797 54.5852C286.839 56.6307 288.287 58.1932 290.143 59.2727C292 60.3333 294.168 60.8636 296.649 60.8636C298.259 60.8636 299.727 60.6364 301.053 60.1818C302.378 59.7083 303.524 59.0076 304.49 58.0795C305.456 57.1515 306.195 56.0057 306.706 54.642L314.746 56.0909C314.102 58.4583 312.946 60.5322 311.28 62.3125C309.632 64.0739 307.558 65.447 305.058 66.4318C302.577 67.3977 299.746 67.8807 296.564 67.8807ZM22.3842 164V105.818H43.1229C47.6304 105.818 51.371 106.595 54.3445 108.148C57.3369 109.701 59.5717 111.85 61.049 114.597C62.5263 117.324 63.2649 120.477 63.2649 124.057C63.2649 127.617 62.5168 130.752 61.0206 133.46C59.5433 136.15 57.3085 138.242 54.3161 139.739C51.3426 141.235 47.602 141.983 43.0945 141.983H27.3842V134.426H42.299C45.1399 134.426 47.4505 134.019 49.2308 133.205C51.0301 132.39 52.3464 131.206 53.1797 129.653C54.013 128.1 54.4297 126.235 54.4297 124.057C54.4297 121.86 54.0036 119.956 53.1513 118.347C52.3179 116.737 51.0017 115.506 49.2024 114.653C47.4221 113.782 45.0831 113.347 42.1854 113.347H31.1626V164H22.3842ZM51.1058 137.75L65.4808 164H55.4808L41.3899 137.75H51.1058ZM91.5249 164.881C87.2256 164.881 83.523 163.962 80.4169 162.125C77.3298 160.269 74.9434 157.665 73.2578 154.312C71.5911 150.941 70.7578 146.992 70.7578 142.466C70.7578 137.996 71.5911 134.057 73.2578 130.648C74.9434 127.239 77.2919 124.578 80.3033 122.665C83.3336 120.752 86.8752 119.795 90.9283 119.795C93.3904 119.795 95.7768 120.203 98.0874 121.017C100.398 121.831 102.472 123.11 104.309 124.852C106.146 126.595 107.595 128.858 108.656 131.642C109.716 134.407 110.246 137.769 110.246 141.727V144.739H75.5589V138.375H101.923C101.923 136.14 101.468 134.161 100.559 132.438C99.6499 130.695 98.3714 129.322 96.7237 128.318C95.0949 127.314 93.1821 126.812 90.9851 126.812C88.5987 126.812 86.5154 127.4 84.7351 128.574C82.9737 129.729 81.6101 131.244 80.6442 133.119C79.6972 134.975 79.2237 136.992 79.2237 139.17V144.142C79.2237 147.059 79.7351 149.54 80.7578 151.585C81.7995 153.631 83.2483 155.193 85.1044 156.273C86.9605 157.333 89.129 157.864 91.6101 157.864C93.2199 157.864 94.6877 157.636 96.0135 157.182C97.3393 156.708 98.4851 156.008 99.451 155.08C100.417 154.152 101.156 153.006 101.667 151.642L109.707 153.091C109.063 155.458 107.907 157.532 106.241 159.312C104.593 161.074 102.519 162.447 100.019 163.432C97.5381 164.398 94.7067 164.881 91.5249 164.881ZM155.751 120.364L139.927 164H130.836L114.984 120.364H124.103L135.154 153.943H135.609L146.631 120.364H155.751ZM163.734 164V120.364H172.228V164H163.734ZM168.023 113.631C166.546 113.631 165.277 113.138 164.217 112.153C163.175 111.15 162.654 109.956 162.654 108.574C162.654 107.172 163.175 105.979 164.217 104.994C165.277 103.991 166.546 103.489 168.023 103.489C169.501 103.489 170.76 103.991 171.802 104.994C172.862 105.979 173.393 107.172 173.393 108.574C173.393 109.956 172.862 111.15 171.802 112.153C170.76 113.138 169.501 113.631 168.023 113.631ZM202.462 164.881C198.163 164.881 194.46 163.962 191.354 162.125C188.267 160.269 185.881 157.665 184.195 154.312C182.529 150.941 181.695 146.992 181.695 142.466C181.695 137.996 182.529 134.057 184.195 130.648C185.881 127.239 188.229 124.578 191.241 122.665C194.271 120.752 197.813 119.795 201.866 119.795C204.328 119.795 206.714 120.203 209.025 121.017C211.335 121.831 213.409 123.11 215.246 124.852C217.084 126.595 218.532 128.858 219.593 131.642C220.654 134.407 221.184 137.769 221.184 141.727V144.739H186.496V138.375H212.86C212.86 136.14 212.406 134.161 211.496 132.438C210.587 130.695 209.309 129.322 207.661 128.318C206.032 127.314 204.12 126.812 201.923 126.812C199.536 126.812 197.453 127.4 195.673 128.574C193.911 129.729 192.548 131.244 191.582 133.119C190.635 134.975 190.161 136.992 190.161 139.17V144.142C190.161 147.059 190.673 149.54 191.695 151.585C192.737 153.631 194.186 155.193 196.042 156.273C197.898 157.333 200.067 157.864 202.548 157.864C204.157 157.864 205.625 157.636 206.951 157.182C208.277 156.708 209.423 156.008 210.388 155.08C211.354 154.152 212.093 153.006 212.604 151.642L220.644 153.091C220 155.458 218.845 157.532 217.178 159.312C215.531 161.074 213.457 162.447 210.957 163.432C208.476 164.398 205.644 164.881 202.462 164.881ZM239.991 164L227.15 120.364H235.928L244.479 152.409H244.906L253.485 120.364H262.263L270.786 152.267H271.212L279.707 120.364H288.485L275.673 164H267.008L258.144 132.494H257.491L248.627 164H239.991Z" fill="url(#paint0_linear_3390_96)" shape-rendering="crispEdges"/>
</g>
<defs>
<filter id="filter0_d_3390_96" x="0.647736" y="0.488281" width="324.638" height="178.393" filterUnits="userSpaceOnUse" color-interpolation-filters="sRGB">
<feFlood flood-opacity="0" result="BackgroundImageFix"/>
<feColorMatrix in="SourceAlpha" type="matrix" values="0 0 0 0 0 0 0 0 0 0 0 0 0 0 0 0 0 0 127 0" result="hardAlpha"/>
<feOffset dy="4"/>
<feGaussianBlur stdDeviation="5"/>
<feComposite in2="hardAlpha" operator="out"/>
<feColorMatrix type="matrix" values="0 0 0 0 0 0 0 0 0 0 0 0 0 0 0 0 0 0 0.9 0"/>
<feBlend mode="normal" in2="BackgroundImageFix" result="effect1_dropShadow_3390_96"/>
<feBlend mode="normal" in="SourceGraphic" in2="effect1_dropShadow_3390_96" result="shape"/>
</filter>
<linearGradient id="paint0_linear_3390_96" x1="8" y1="86.5" x2="320" y2="86.5" gradientUnits="userSpaceOnUse">
<stop stop-color="#0C4483" stop-opacity="0.8"/>
<stop offset="1" stop-opacity="0.8"/>
</linearGradient>
</defs>
</svg>
