<svg width="325" height="179" viewBox="0 0 325 179" fill="none" xmlns="http://www.w3.org/2000/svg">
<g filter="url(#filter0_d_3287_97)">
<path d="M26.2841 67L10.1477 8.81818H19.3807L30.7159 53.875H31.2557L43.0455 8.81818H52.1932L63.983 53.9034H64.5227L75.8295 8.81818H85.0909L68.9261 67H60.0909L47.8466 23.4205H47.392L35.1477 67H26.2841ZM106.923 67.8807C102.624 67.8807 98.9214 66.9621 95.8153 65.125C92.7282 63.2689 90.3419 60.6648 88.6562 57.3125C86.9896 53.9413 86.1562 49.9924 86.1562 45.4659C86.1562 40.9962 86.9896 37.0568 88.6562 33.6477C90.3419 30.2386 92.6903 27.5777 95.7017 25.6648C98.732 23.7519 102.274 22.7955 106.327 22.7955C108.789 22.7955 111.175 23.2027 113.486 24.017C115.796 24.8314 117.87 26.1098 119.707 27.8523C121.545 29.5947 122.993 31.858 124.054 34.642C125.115 37.4072 125.645 40.7689 125.645 44.7273V47.7386H90.9574V41.375H117.321C117.321 39.1402 116.866 37.161 115.957 35.4375C115.048 33.6951 113.77 32.322 112.122 31.3182C110.493 30.3144 108.58 29.8125 106.384 29.8125C103.997 29.8125 101.914 30.3996 100.134 31.5739C98.3722 32.7292 97.0085 34.2443 96.0426 36.1193C95.0956 37.9754 94.6222 39.9924 94.6222 42.1705V47.142C94.6222 50.0587 95.1335 52.5398 96.1562 54.5852C97.1979 56.6307 98.6468 58.1932 100.503 59.2727C102.359 60.3333 104.527 60.8636 107.009 60.8636C108.618 60.8636 110.086 60.6364 111.412 60.1818C112.738 59.7083 113.884 59.0076 114.849 58.0795C115.815 57.1515 116.554 56.0057 117.065 54.642L125.105 56.0909C124.461 58.4583 123.306 60.5322 121.639 62.3125C119.991 64.0739 117.918 65.447 115.418 66.4318C112.937 67.3977 110.105 67.8807 106.923 67.8807ZM135.751 67V8.81818H144.246V30.4375H144.757C145.25 29.5284 145.96 28.4773 146.888 27.2841C147.816 26.0909 149.104 25.0492 150.751 24.1591C152.399 23.25 154.577 22.7955 157.286 22.7955C160.808 22.7955 163.952 23.6856 166.717 25.4659C169.482 27.2462 171.651 29.8125 173.223 33.1648C174.814 36.517 175.609 40.5511 175.609 45.267C175.609 49.983 174.823 54.0265 173.251 57.3977C171.679 60.75 169.52 63.3352 166.774 65.1534C164.028 66.9527 160.893 67.8523 157.371 67.8523C154.719 67.8523 152.551 67.4072 150.865 66.517C149.198 65.6269 147.892 64.5852 146.945 63.392C145.998 62.1989 145.268 61.1383 144.757 60.2102H144.047V67H135.751ZM144.075 45.1818C144.075 48.25 144.52 50.9394 145.411 53.25C146.301 55.5606 147.589 57.3693 149.274 58.6761C150.96 59.964 153.024 60.608 155.467 60.608C158.005 60.608 160.126 59.9356 161.831 58.5909C163.536 57.2273 164.823 55.3807 165.695 53.0511C166.585 50.7216 167.03 48.0985 167.03 45.1818C167.03 42.303 166.594 39.7178 165.723 37.4261C164.871 35.1345 163.583 33.3258 161.859 32C160.155 30.6742 158.024 30.0114 155.467 30.0114C153.005 30.0114 150.922 30.6458 149.217 31.9148C147.532 33.1837 146.253 34.9545 145.382 37.2273C144.511 39.5 144.075 42.1515 144.075 45.1818ZM217.847 34.017L210.148 35.3807C209.826 34.3958 209.314 33.4583 208.614 32.5682C207.932 31.678 207.004 30.9489 205.83 30.3807C204.655 29.8125 203.188 29.5284 201.426 29.5284C199.021 29.5284 197.013 30.0682 195.403 31.1477C193.794 32.2083 192.989 33.5814 192.989 35.267C192.989 36.7254 193.528 37.8996 194.608 38.7898C195.688 39.6799 197.43 40.4091 199.835 40.9773L206.767 42.5682C210.782 43.4962 213.775 44.9261 215.744 46.858C217.714 48.7898 218.699 51.2992 218.699 54.3864C218.699 57 217.941 59.3295 216.426 61.375C214.93 63.4015 212.837 64.9924 210.148 66.1477C207.477 67.303 204.381 67.8807 200.858 67.8807C195.972 67.8807 191.985 66.839 188.898 64.7557C185.811 62.6534 183.917 59.6705 183.216 55.8068L191.426 54.5568C191.938 56.697 192.989 58.3163 194.58 59.4148C196.17 60.4943 198.244 61.0341 200.801 61.0341C203.585 61.0341 205.811 60.4564 207.477 59.3011C209.144 58.1269 209.977 56.697 209.977 55.0114C209.977 53.6477 209.466 52.5019 208.443 51.5739C207.439 50.6458 205.896 49.9451 203.812 49.4716L196.426 47.8523C192.354 46.9242 189.343 45.447 187.392 43.4205C185.46 41.3939 184.494 38.8277 184.494 35.7216C184.494 33.1458 185.214 30.892 186.653 28.9602C188.093 27.0284 190.081 25.5227 192.619 24.4432C195.157 23.3447 198.064 22.7955 201.341 22.7955C206.057 22.7955 209.769 23.8182 212.477 25.8636C215.186 27.8902 216.975 30.608 217.847 34.017ZM228.038 67V23.3636H236.533V67H228.038ZM232.328 16.6307C230.851 16.6307 229.582 16.1383 228.521 15.1534C227.48 14.1496 226.959 12.9564 226.959 11.5739C226.959 10.1723 227.48 8.97917 228.521 7.99432C229.582 6.99053 230.851 6.48864 232.328 6.48864C233.805 6.48864 235.065 6.99053 236.107 7.99432C237.167 8.97917 237.697 10.1723 237.697 11.5739C237.697 12.9564 237.167 14.1496 236.107 15.1534C235.065 16.1383 233.805 16.6307 232.328 16.6307ZM268.33 23.3636V30.1818H244.494V23.3636H268.33ZM250.886 12.9091H259.381V54.1875C259.381 55.8352 259.627 57.0758 260.119 57.9091C260.612 58.7235 261.246 59.2822 262.023 59.5852C262.818 59.8693 263.68 60.0114 264.608 60.0114C265.29 60.0114 265.886 59.964 266.398 59.8693C266.909 59.7746 267.307 59.6989 267.591 59.642L269.125 66.6591C268.633 66.8485 267.932 67.0379 267.023 67.2273C266.114 67.4356 264.977 67.5492 263.614 67.5682C261.379 67.6061 259.295 67.2083 257.364 66.375C255.432 65.5417 253.869 64.2538 252.676 62.5114C251.483 60.7689 250.886 58.5814 250.886 55.9489V12.9091ZM296.064 67.8807C291.765 67.8807 288.062 66.9621 284.956 65.125C281.869 63.2689 279.482 60.6648 277.797 57.3125C276.13 53.9413 275.297 49.9924 275.297 45.4659C275.297 40.9962 276.13 37.0568 277.797 33.6477C279.482 30.2386 281.831 27.5777 284.842 25.6648C287.873 23.7519 291.414 22.7955 295.467 22.7955C297.929 22.7955 300.316 23.2027 302.626 24.017C304.937 24.8314 307.011 26.1098 308.848 27.8523C310.685 29.5947 312.134 31.858 313.195 34.642C314.255 37.4072 314.786 40.7689 314.786 44.7273V47.7386H280.098V41.375H306.462C306.462 39.1402 306.007 37.161 305.098 35.4375C304.189 33.6951 302.911 32.322 301.263 31.3182C299.634 30.3144 297.721 29.8125 295.524 29.8125C293.138 29.8125 291.054 30.3996 289.274 31.5739C287.513 32.7292 286.149 34.2443 285.183 36.1193C284.236 37.9754 283.763 39.9924 283.763 42.1705V47.142C283.763 50.0587 284.274 52.5398 285.297 54.5852C286.339 56.6307 287.787 58.1932 289.643 59.2727C291.5 60.3333 293.668 60.8636 296.149 60.8636C297.759 60.8636 299.227 60.6364 300.553 60.1818C301.878 59.7083 303.024 59.0076 303.99 58.0795C304.956 57.1515 305.695 56.0057 306.206 54.642L314.246 56.0909C313.602 58.4583 312.446 60.5322 310.78 62.3125C309.132 64.0739 307.058 65.447 304.558 66.4318C302.077 67.3977 299.246 67.8807 296.064 67.8807ZM21.8842 164V105.818H42.6229C47.1304 105.818 50.871 106.595 53.8445 108.148C56.8369 109.701 59.0717 111.85 60.549 114.597C62.0263 117.324 62.7649 120.477 62.7649 124.057C62.7649 127.617 62.0168 130.752 60.5206 133.46C59.0433 136.15 56.8085 138.242 53.8161 139.739C50.8426 141.235 47.102 141.983 42.5945 141.983H26.8842V134.426H41.799C44.6399 134.426 46.9505 134.019 48.7308 133.205C50.5301 132.39 51.8464 131.206 52.6797 129.653C53.513 128.1 53.9297 126.235 53.9297 124.057C53.9297 121.86 53.5036 119.956 52.6513 118.347C51.8179 116.737 50.5017 115.506 48.7024 114.653C46.9221 113.782 44.5831 113.347 41.6854 113.347H30.6626V164H21.8842ZM50.6058 137.75L64.9808 164H54.9808L40.8899 137.75H50.6058ZM91.0249 164.881C86.7256 164.881 83.023 163.962 79.9169 162.125C76.8298 160.269 74.4434 157.665 72.7578 154.312C71.0911 150.941 70.2578 146.992 70.2578 142.466C70.2578 137.996 71.0911 134.057 72.7578 130.648C74.4434 127.239 76.7919 124.578 79.8033 122.665C82.8336 120.752 86.3752 119.795 90.4283 119.795C92.8904 119.795 95.2768 120.203 97.5874 121.017C99.898 121.831 101.972 123.11 103.809 124.852C105.646 126.595 107.095 128.858 108.156 131.642C109.216 134.407 109.746 137.769 109.746 141.727V144.739H75.0589V138.375H101.423C101.423 136.14 100.968 134.161 100.059 132.438C99.1499 130.695 97.8714 129.322 96.2237 128.318C94.5949 127.314 92.6821 126.812 90.4851 126.812C88.0987 126.812 86.0154 127.4 84.2351 128.574C82.4737 129.729 81.1101 131.244 80.1442 133.119C79.1972 134.975 78.7237 136.992 78.7237 139.17V144.142C78.7237 147.059 79.2351 149.54 80.2578 151.585C81.2995 153.631 82.7483 155.193 84.6044 156.273C86.4605 157.333 88.629 157.864 91.1101 157.864C92.7199 157.864 94.1877 157.636 95.5135 157.182C96.8393 156.708 97.9851 156.008 98.951 155.08C99.9169 154.152 100.656 153.006 101.167 151.642L109.207 153.091C108.563 155.458 107.407 157.532 105.741 159.312C104.093 161.074 102.019 162.447 99.5192 163.432C97.0381 164.398 94.2067 164.881 91.0249 164.881ZM155.251 120.364L139.427 164H130.336L114.484 120.364H123.603L134.654 153.943H135.109L146.131 120.364H155.251ZM163.234 164V120.364H171.728V164H163.234ZM167.523 113.631C166.046 113.631 164.777 113.138 163.717 112.153C162.675 111.15 162.154 109.956 162.154 108.574C162.154 107.172 162.675 105.979 163.717 104.994C164.777 103.991 166.046 103.489 167.523 103.489C169.001 103.489 170.26 103.991 171.302 104.994C172.362 105.979 172.893 107.172 172.893 108.574C172.893 109.956 172.362 111.15 171.302 112.153C170.26 113.138 169.001 113.631 167.523 113.631ZM201.962 164.881C197.663 164.881 193.96 163.962 190.854 162.125C187.767 160.269 185.381 157.665 183.695 154.312C182.029 150.941 181.195 146.992 181.195 142.466C181.195 137.996 182.029 134.057 183.695 130.648C185.381 127.239 187.729 124.578 190.741 122.665C193.771 120.752 197.313 119.795 201.366 119.795C203.828 119.795 206.214 120.203 208.525 121.017C210.835 121.831 212.909 123.11 214.746 124.852C216.584 126.595 218.032 128.858 219.093 131.642C220.154 134.407 220.684 137.769 220.684 141.727V144.739H185.996V138.375H212.36C212.36 136.14 211.906 134.161 210.996 132.438C210.087 130.695 208.809 129.322 207.161 128.318C205.532 127.314 203.62 126.812 201.423 126.812C199.036 126.812 196.953 127.4 195.173 128.574C193.411 129.729 192.048 131.244 191.082 133.119C190.135 134.975 189.661 136.992 189.661 139.17V144.142C189.661 147.059 190.173 149.54 191.195 151.585C192.237 153.631 193.686 155.193 195.542 156.273C197.398 157.333 199.567 157.864 202.048 157.864C203.657 157.864 205.125 157.636 206.451 157.182C207.777 156.708 208.923 156.008 209.888 155.08C210.854 154.152 211.593 153.006 212.104 151.642L220.144 153.091C219.5 155.458 218.345 157.532 216.678 159.312C215.031 161.074 212.957 162.447 210.457 163.432C207.976 164.398 205.144 164.881 201.962 164.881ZM239.491 164L226.65 120.364H235.428L243.979 152.409H244.406L252.985 120.364H261.763L270.286 152.267H270.712L279.207 120.364H287.985L275.173 164H266.508L257.644 132.494H256.991L248.127 164H239.491Z" fill="url(#paint0_linear_3287_97)" shape-rendering="crispEdges"/>
</g>
<defs>
<filter id="filter0_d_3287_97" x="0.147736" y="0.488281" width="324.638" height="178.393" filterUnits="userSpaceOnUse" color-interpolation-filters="sRGB">
<feFlood flood-opacity="0" result="BackgroundImageFix"/>
<feColorMatrix in="SourceAlpha" type="matrix" values="0 0 0 0 0 0 0 0 0 0 0 0 0 0 0 0 0 0 127 0" result="hardAlpha"/>
<feOffset dy="4"/>
<feGaussianBlur stdDeviation="5"/>
<feComposite in2="hardAlpha" operator="out"/>
<feColorMatrix type="matrix" values="0 0 0 0 0 0 0 0 0 0 0 0 0 0 0 0 0 0 0.9 0"/>
<feBlend mode="normal" in2="BackgroundImageFix" result="effect1_dropShadow_3287_97"/>
<feBlend mode="normal" in="SourceGraphic" in2="effect1_dropShadow_3287_97" result="shape"/>
</filter>
<linearGradient id="paint0_linear_3287_97" x1="-20" y1="86.5" x2="347" y2="86.5" gradientUnits="userSpaceOnUse">
<stop stop-color="#0C4483" stop-opacity="0.8"/>
<stop offset="1" stop-opacity="0.8"/>
</linearGradient>
</defs>
</svg>
